# xmcd
# Track frame offsets:
# 150
# 12535
# 30092
# 40552
# 54757
# 65332
# 81590
# 94012
# 105095
# 115397
# 127800
# 145115
#
# Disc length: 2149 seconds
# Revision: 0
# Processed by: cddbd v1.4PL0 Copyright (c) Steve Scherf et al.
# Submitted via: VisiTrax 2.9.5.180 - For more info visit www.synapsa.com
#
DISCID=8708630c
DTITLE=Bjøro Håland - By Request
DYEAR=1988
DGENRE=
TTITLE0=I Can´t Stop Loving You
TTITLE1=Seven Spanish Angels
TTITLE2=Railroad Bum
TTITLE3=The Hand That Rocks The Cradle
TTITLE4=Born To Lose
TTITLE5=Sound Of The Blues
TTITLE6=Shutters And Boards
TTITLE7=Blue Ridge Mountain Turning Green
TTITLE8=He´ll Have To Go
TTITLE9=Long Gone Lonesome Blues
TTITLE10=When You Sweet Sixten
TTITLE11=Medley: Folsome Prison Blues/Act Naturally/ A Fool never Learns/ I Wal
TTITLE11=k The Line
EXTD=
EXTT0=
EXTT1=
EXTT2=
EXTT3=
EXTT4=
EXTT5=
EXTT6=
EXTT7=
EXTT8=
EXTT9=
EXTT10=
EXTT11=
PLAYORDER=
